<svg xmlns="http://www.w3.org/2000/svg" viewBox="0 0 106 25">
  <g id="_Layer_" >
    <g>
      <path d="M32.91,17.6a4.77,4.77,0,0,1-1.72-.32,4.08,4.08,0,0,1-1.42-1l.52-.93a3.79,3.79,0,0,0,1.23.87,3.64,3.64,0,0,0,1.47.29,1.77,1.77,0,0,0,1.28-.45,1.56,1.56,0,0,0,.47-1.22,1.39,1.39,0,0,0-.41-1.07,6.11,6.11,0,0,0-1.71-.9,5.48,5.48,0,0,1-2.09-1.2A2.39,2.39,0,0,1,30,10a2.44,2.44,0,0,1,.74-1.91,2.87,2.87,0,0,1,2-.67,4.11,4.11,0,0,1,1.61.33,3.56,3.56,0,0,1,1.33,1l-.49.93a3.91,3.91,0,0,0-1.19-.87,3,3,0,0,0-1.29-.3,1.6,1.6,0,0,0-1.11.37A1.39,1.39,0,0,0,31.12,10a1.31,1.31,0,0,0,.44,1,7,7,0,0,0,1.8.89,5.19,5.19,0,0,1,2,1.15,2.41,2.41,0,0,1,.56,1.67,2.77,2.77,0,0,1-.86,2.15A3.11,3.11,0,0,1,32.91,17.6Z"/>
      <path d="M41.57,17.62a2.6,2.6,0,0,1-2.12-.88,4,4,0,0,1-.74-2.58V10.89a4.09,4.09,0,0,1,.74-2.62,3,3,0,0,1,4.26,0,4.15,4.15,0,0,1,.73,2.62v3.27a4,4,0,0,1-.73,2.58A2.62,2.62,0,0,1,41.57,17.62Zm0-1a1.48,1.48,0,0,0,1.3-.55,3.33,3.33,0,0,0,.39-1.85V10.86A3.41,3.41,0,0,0,42.87,9a1.46,1.46,0,0,0-1.3-.56,1.49,1.49,0,0,0-1.3.56,3.52,3.52,0,0,0-.38,1.89v3.33A3.43,3.43,0,0,0,40.27,16,1.51,1.51,0,0,0,41.57,16.59Z"/>
      <path d="M47.94,17.5V7.5h1.17v9h3.65v1Z"/>
      <path d="M58,17.62a2.4,2.4,0,0,1-2-.84,4.15,4.15,0,0,1-.66-2.58V7.5h1.17v6.75a3.59,3.59,0,0,0,.34,1.82,1.3,1.3,0,0,0,1.16.52,1.31,1.31,0,0,0,1.17-.52,3.61,3.61,0,0,0,.33-1.82V7.5h1.18v6.7a4.15,4.15,0,0,1-.66,2.58A2.42,2.42,0,0,1,58,17.62Z"/>
      <path d="M66.33,17.5v-9H63.8v-1h6.26v1H67.51v9Z"/>
      <path d="M73.28,17.5v-1h2.09V8.54H73.28v-1h5.35v1H76.54v7.92h2.09v1Z"/>
      <path d="M84.69,17.62a2.61,2.61,0,0,1-2.13-.88,4,4,0,0,1-.74-2.58V10.89a4.09,4.09,0,0,1,.74-2.62,2.63,2.63,0,0,1,2.14-.89,2.61,2.61,0,0,1,2.12.89,4.09,4.09,0,0,1,.73,2.62v3.27a4,4,0,0,1-.73,2.58A2.61,2.61,0,0,1,84.69,17.62Zm0-1A1.51,1.51,0,0,0,86,16a3.43,3.43,0,0,0,.38-1.85V10.86A3.52,3.52,0,0,0,86,9a1.49,1.49,0,0,0-1.3-.56,1.46,1.46,0,0,0-1.3.56A3.41,3.41,0,0,0,83,10.86v3.33A3.33,3.33,0,0,0,83.39,16,1.48,1.48,0,0,0,84.69,16.59Z"/>
      <path d="M94.85,17.5l-2.7-8.58V17.5h-1V7.5h1.54l2.78,8.64V7.5h1v10Z"/>
      <path d="M102.87,17.6a4.76,4.76,0,0,1-1.71-.32,4.12,4.12,0,0,1-1.43-1l.53-.93a3.79,3.79,0,0,0,1.23.87,3.57,3.57,0,0,0,1.47.29,1.77,1.77,0,0,0,1.28-.45,1.6,1.6,0,0,0,.47-1.22,1.42,1.42,0,0,0-.41-1.07,6.21,6.21,0,0,0-1.72-.9,5.5,5.5,0,0,1-2.08-1.2A2.35,2.35,0,0,1,99.92,10a2.44,2.44,0,0,1,.75-1.91,2.84,2.84,0,0,1,2-.67,4.19,4.19,0,0,1,1.62.33,3.61,3.61,0,0,1,1.32,1l-.49.93a3.76,3.76,0,0,0-1.18-.87,3.1,3.1,0,0,0-1.29-.3,1.57,1.57,0,0,0-1.11.37,1.36,1.36,0,0,0-.42,1.08,1.29,1.29,0,0,0,.45,1,6.68,6.68,0,0,0,1.79.89,5.17,5.17,0,0,1,2,1.15,2.4,2.4,0,0,1,.55,1.67,2.77,2.77,0,0,1-.85,2.15A3.12,3.12,0,0,1,102.87,17.6Z"/>
      <path d="M23.9,1.1V23.9H1.1V1.1H23.9M25,0H0V25H25V0Z"/>
      <path d="M18,17.5V7.5h1.1v10Z"/>
      <polygon points="15.47 7.5 15.47 17.5 14.37 17.5 14.37 9.18 11.17 17.5 10.17 17.5 6.97 9.18 6.97 17.5 5.87 17.5 5.87 7.5 7.46 7.5 10.67 15.86 13.88 7.5 15.47 7.5"/>
    </g>
  </g>
</svg>
