<svg xmlns="http://www.w3.org/2000/svg" viewBox="0 0 87 25">
  <g id="_Layer_">
    <g>
      <path d="M30.12,17.5V7.5h2.41a2.9,2.9,0,0,1,2.29.94A3.69,3.69,0,0,1,35.66,11v3.1a3.58,3.58,0,0,1-.85,2.49,2.93,2.93,0,0,1-2.29.93Zm1.17-1h1.2A1.8,1.8,0,0,0,34,15.84a2.69,2.69,0,0,0,.51-1.74V11A2.78,2.78,0,0,0,34,9.18a1.75,1.75,0,0,0-1.48-.64h-1.2Z"/>
      <path d="M43.6,17.5l-.71-2.92H40.13l-.72,2.92H38.25l2.64-10h1.27l2.65,10Zm-1-4L41.53,8.86l-1.14,4.65Z"/>
      <path d="M49.07,17.5v-9H46.53v-1h6.26v1H50.24v9Z"/>
      <path d="M59.86,17.5l-.71-2.92H56.38l-.71,2.92H54.51l2.64-10h1.27l2.65,10Zm-1-4L57.78,8.86l-1.13,4.65Z"/>
      <path d="M64.41,17.5V7.5h1.17v9h3.65v1Z"/>
      <path d="M76.74,17.5,76,14.58H73.27l-.71,2.92H71.39L74,7.5h1.28L78,17.5Zm-1-4L74.67,8.86l-1.14,4.65Z"/>
      <path d="M80.79,17.5V7.5h2.68a2.81,2.81,0,0,1,1.94.58A2.3,2.3,0,0,1,86,9.85v.58a1.72,1.72,0,0,1-.33,1,1.9,1.9,0,0,1-1.13.74h0a2.09,2.09,0,0,1,1.36.81,2.29,2.29,0,0,1,.42,1.38V15a2.45,2.45,0,0,1-.7,1.9,3.11,3.11,0,0,1-2.13.63ZM82,11.78h1.55a1.36,1.36,0,0,0,1-.35,1.61,1.61,0,0,0,.32-1.1V10a1.59,1.59,0,0,0-.32-1.1,1.4,1.4,0,0,0-1-.34H82Zm0,4.66h1.72a1.49,1.49,0,0,0,1.14-.38,1.77,1.77,0,0,0,.35-1.23v-.37a1.8,1.8,0,0,0-.35-1.24,1.45,1.45,0,0,0-1.14-.38H82Z"/>
      <path d="M23.9,1.1V23.9H1.1V1.1H23.9M25,0H0V25H25V0Z"/>
      <path d="M18,17.5V7.5h1.1v10Z"/>
      <polygon points="15.47 7.5 15.47 17.5 14.37 17.5 14.37 9.18 11.17 17.5 10.17 17.5 6.97 9.18 6.97 17.5 5.87 17.5 5.87 7.5 7.46 7.5 10.67 15.86 13.88 7.5 15.47 7.5"/>
    </g>
  </g>
</svg>
