<svg xmlns="http://www.w3.org/2000/svg" viewBox="0 0 107 25">
  <g id="_Layer_" >
    <g>
      <path d="M30.12,17.5V7.5h5.54v1H31.29v3h3.84v1.07H31.29v3.87h4.37v1Z"/>
      <path d="M39.07,17.5V7.5h2.41a2.9,2.9,0,0,1,2.29.94A3.69,3.69,0,0,1,44.61,11v3.1a3.53,3.53,0,0,1-.85,2.49,2.93,2.93,0,0,1-2.29.93Zm1.17-1h1.2a1.83,1.83,0,0,0,1.49-.62,2.75,2.75,0,0,0,.5-1.74V11a2.84,2.84,0,0,0-.5-1.77,1.79,1.79,0,0,0-1.49-.64h-1.2Z"/>
      <path d="M50.69,17.62a2.4,2.4,0,0,1-2-.84A4.15,4.15,0,0,1,48,14.2V7.5h1.17v6.75a3.59,3.59,0,0,0,.34,1.82,1.3,1.3,0,0,0,1.16.52,1.31,1.31,0,0,0,1.17-.52,3.61,3.61,0,0,0,.33-1.82V7.5h1.18v6.7a4.15,4.15,0,0,1-.66,2.58A2.43,2.43,0,0,1,50.69,17.62Z"/>
      <path d="M59.81,17.62a2.8,2.8,0,0,1-2.24-.86,3.81,3.81,0,0,1-.75-2.57V10.86a3.91,3.91,0,0,1,.75-2.61,2.8,2.8,0,0,1,2.24-.87A2.73,2.73,0,0,1,62,8.19a4.17,4.17,0,0,1,.79,2.55l-1.16.12A4,4,0,0,0,61.11,9a1.49,1.49,0,0,0-1.3-.54,1.65,1.65,0,0,0-1.4.55A3.16,3.16,0,0,0,58,10.82v3.41A3,3,0,0,0,58.43,16a1.63,1.63,0,0,0,1.38.57,1.53,1.53,0,0,0,1.3-.51,3.84,3.84,0,0,0,.49-1.89l1.16.12A4.12,4.12,0,0,1,62,16.83,2.75,2.75,0,0,1,59.81,17.62Z"/>
      <path d="M70.82,17.5l-.71-2.93H67.34l-.71,2.93H65.47l2.64-10h1.27L72,17.5Zm-1-4L68.74,8.86l-1.13,4.65Z"/>
      <path d="M76.35,17.5v-9H73.81v-1h6.26v1H77.52v9Z"/>
      <path d="M83,17.5v-1h2.09V8.54H83v-1h5.35v1H86.3v7.92h2.09v1Z"/>
      <path d="M94.45,17.62a2.62,2.62,0,0,1-2.13-.88,4,4,0,0,1-.73-2.58V10.89a4.09,4.09,0,0,1,.73-2.62,2.65,2.65,0,0,1,2.14-.89,2.59,2.59,0,0,1,2.12.89,4.09,4.09,0,0,1,.73,2.62v3.27a4,4,0,0,1-.73,2.58A2.61,2.61,0,0,1,94.45,17.62Zm0-1a1.5,1.5,0,0,0,1.3-.55,3.33,3.33,0,0,0,.39-1.85V10.86A3.41,3.41,0,0,0,95.75,9a1.79,1.79,0,0,0-2.6,0,3.41,3.41,0,0,0-.39,1.89v3.33A3.33,3.33,0,0,0,93.15,16,1.5,1.5,0,0,0,94.45,16.59Z"/>
      <path d="M104.52,17.5l-2.7-8.58V17.5h-1V7.5h1.54l2.78,8.64V7.5h1v10Z"/>
      <path d="M23.9,1.1V23.9H1.1V1.1H23.9M25,0H0V25H25V0Z"/>
      <path d="M18,17.5V7.5h1.1v10Z"/>
      <polygon points="15.47 7.5 15.47 17.5 14.37 17.5 14.37 9.18 11.17 17.5 10.17 17.5 6.97 9.18 6.97 17.5 5.87 17.5 5.87 7.5 7.46 7.5 10.67 15.86 13.88 7.5 15.47 7.5"/>
    </g>
  </g>
</svg>
