<svg xmlns="http://www.w3.org/2000/svg" viewBox="0 0 100 25">
  <g id="_Layer_" >
    <g>
      <path d="M31.29,17.5H30.12V7.5h3.19a2.63,2.63,0,0,1,1.95.66,2.64,2.64,0,0,1,.66,2v.77a3,3,0,0,1-.5,1.83,2.15,2.15,0,0,1-1.49.82l2.1,4H34.72l-2.08-3.91H31.29Zm0-4.94h2a1.5,1.5,0,0,0,1.16-.39,1.86,1.86,0,0,0,.36-1.28v-.78a1.69,1.69,0,0,0-.36-1.2,1.54,1.54,0,0,0-1.16-.37h-2Z"/>
      <path d="M39.49,17.5V7.5H45v1H40.67v3H44.5v1.07H40.67v3.87H45v1Z"/>
      <path d="M50.9,17.6a4.76,4.76,0,0,1-1.71-.32,4.08,4.08,0,0,1-1.42-1l.52-.93a3.79,3.79,0,0,0,1.23.87,3.64,3.64,0,0,0,1.47.29,1.77,1.77,0,0,0,1.28-.45,1.56,1.56,0,0,0,.47-1.22,1.42,1.42,0,0,0-.41-1.07,6.27,6.27,0,0,0-1.71-.9,5.48,5.48,0,0,1-2.09-1.2A2.4,2.4,0,0,1,48,10a2.44,2.44,0,0,1,.75-1.91,2.85,2.85,0,0,1,2-.67,4.14,4.14,0,0,1,1.61.33,3.52,3.52,0,0,1,1.32,1l-.48.93a3.91,3.91,0,0,0-1.19-.87,3,3,0,0,0-1.29-.3,1.58,1.58,0,0,0-1.11.37A1.35,1.35,0,0,0,49.12,10a1.28,1.28,0,0,0,.44,1,6.84,6.84,0,0,0,1.79.89,5.17,5.17,0,0,1,2,1.15,2.41,2.41,0,0,1,.56,1.67,2.77,2.77,0,0,1-.86,2.15A3.12,3.12,0,0,1,50.9,17.6Z"/>
      <path d="M57.32,17.5V7.5h5.53v1H58.49v3h3.84v1.07H58.49v3.87h4.36v1Z"/>
      <path d="M71.15,17.5l-.71-2.93H67.68L67,17.5H65.8l2.64-10h1.28l2.65,10Zm-1-4L69.08,8.86l-1.14,4.65Z"/>
      <path d="M76.88,17.5H75.7V7.5h3.19a2.65,2.65,0,0,1,2,.66,2.68,2.68,0,0,1,.65,2v.77a2.93,2.93,0,0,1-.5,1.83,2.15,2.15,0,0,1-1.48.82l2.1,4H80.3l-2.07-3.91H76.88Zm0-4.94h2A1.48,1.48,0,0,0,80,12.17a1.86,1.86,0,0,0,.36-1.28v-.78A1.69,1.69,0,0,0,80,8.91a1.51,1.51,0,0,0-1.15-.37h-2Z"/>
      <path d="M87.85,17.62a2.8,2.8,0,0,1-2.24-.86,3.81,3.81,0,0,1-.75-2.57V10.86a3.91,3.91,0,0,1,.75-2.61,2.8,2.8,0,0,1,2.24-.87A2.7,2.7,0,0,1,90,8.19a4.1,4.1,0,0,1,.8,2.55l-1.16.12A4,4,0,0,0,89.15,9a1.49,1.49,0,0,0-1.3-.54,1.65,1.65,0,0,0-1.4.55A3.16,3.16,0,0,0,86,10.82v3.41A3,3,0,0,0,86.47,16a1.6,1.6,0,0,0,1.38.57,1.53,1.53,0,0,0,1.3-.51,3.84,3.84,0,0,0,.49-1.89l1.16.12a4.05,4.05,0,0,1-.8,2.52A2.73,2.73,0,0,1,87.85,17.62Z"/>
      <path d="M94.21,17.5V7.5h1.17v4.05h3V7.5h1.18v10H98.38V12.61h-3V17.5Z"/>
      <path d="M23.9,1.1V23.9H1.1V1.1H23.9M25,0H0V25H25V0Z"/>
      <path d="M18,17.5V7.5h1.1v10Z"/>
      <polygon points="15.47 7.5 15.47 17.5 14.37 17.5 14.37 9.18 11.17 17.5 10.17 17.5 6.97 9.18 6.97 17.5 5.87 17.5 5.87 7.5 7.46 7.5 10.67 15.86 13.88 7.5 15.47 7.5"/>
    </g>
  </g>
</svg>
