<?xml version="1.0" encoding="UTF-8"?>
<svg version="1.1" viewBox="0 0 87 25" xmlns="http://www.w3.org/2000/svg">
 <g id="_Layer_">
  <path d="m35.46 17.5-0.71-2.92h-2.77l-0.71 2.92h-1.16l2.64-10h1.27l2.65 10zm-1-4-1.08-4.64-1.13 4.65z"/>
  <path d="m23.9 1.1v22.8h-22.8v-22.8h22.8m1.1-1.1h-25v25h25z"/>
  <path d="m18 17.5v-10h1.1v10z"/>
  <polygon points="14.37 9.18 11.17 17.5 10.17 17.5 6.97 9.18 6.97 17.5 5.87 17.5 5.87 7.5 7.46 7.5 10.67 15.86 13.88 7.5 15.47 7.5 15.47 17.5 14.37 17.5"/>
  <path d="m39.019 17.46v-1h2.09v-7.96h-2.09v-1h5.35v1h-2.09v7.92h2.09v1z"/>
 </g>
</svg>
